<svg width="64" height="64" viewBox="0 0 64 64" fill="none" xmlns="http://www.w3.org/2000/svg">
<path d="M31.9998 64C49.6729 64 63.9998 49.6731 63.9998 32C63.9998 14.3269 49.6729 0 31.9998 0C14.3267 0 -0.000183105 14.3269 -0.000183105 32C-0.000183105 49.6731 14.3267 64 31.9998 64Z" fill="#D7E1F4"/>
<path fill-rule="evenodd" clip-rule="evenodd" d="M63.8522 28.9257C63.9488 29.9376 64 30.9627 64 32C64 46.0711 54.9175 58.0206 42.2955 62.3074L23.2523 43.2562L30.2871 30.6769L31.7118 14.8083L63.8528 28.9257H63.8522Z" fill="#132144"/>
<path fill-rule="evenodd" clip-rule="evenodd" d="M31.9905 30.3118C31.8157 30.2944 31.606 30.2944 31.4138 30.3118C27.254 30.1719 23.9506 26.7637 23.9506 22.5689C23.9506 18.2866 27.4115 14.8083 31.7111 14.8083C35.9934 14.8083 39.4717 18.2866 39.4717 22.5689C39.454 26.7637 36.1507 30.1722 31.9908 30.3118H31.9905Z" fill="#03A1DB" stroke="#D7E1F4" stroke-width="1.39937" stroke-miterlimit="22.9256" stroke-linecap="round" stroke-linejoin="round"/>
<path fill-rule="evenodd" clip-rule="evenodd" d="M23.2521 32.9963C19.0222 35.8277 19.0222 40.4421 23.2521 43.2562C28.0588 46.4721 35.9415 46.4721 40.7479 43.2562C44.9775 40.4248 44.9775 35.8103 40.7479 32.9963C35.9589 29.7977 28.0761 29.7977 23.2521 32.9963Z" fill="#03A1DB" stroke="#D7E1F4" stroke-width="1.39937" stroke-miterlimit="22.9256" stroke-linecap="round" stroke-linejoin="round"/>
</svg>
