<svg width="65" height="64" viewBox="0 0 65 64" fill="none" xmlns="http://www.w3.org/2000/svg">
<path d="M32.6665 64C50.3396 64 64.6665 49.6731 64.6665 32C64.6665 14.3269 50.3396 0 32.6665 0C14.9934 0 0.666512 14.3269 0.666512 32C0.666512 49.6731 14.9934 64 32.6665 64Z" fill="#D7E1F4"/>
<path fill-rule="evenodd" clip-rule="evenodd" d="M64.5195 28.9295C64.6158 29.9402 64.6667 30.9642 64.6667 32C64.6667 43.4805 58.6197 53.5469 49.5383 59.1933L30.7998 44.3841L30.9535 30.6769L42.7523 19.1404L64.5189 28.9257L64.5192 28.9295H64.5195Z" fill="#132144"/>
<path fill-rule="evenodd" clip-rule="evenodd" d="M21.071 18.4167C18.0538 19.796 15.8433 23.0764 15.8433 26.9884C15.8433 30.9848 17.4788 34.0653 19.8232 36.7053C21.7555 38.8811 24.0946 40.6844 26.3758 42.443C26.9175 42.8607 27.4563 43.2759 27.9854 43.6931C28.9422 44.4474 29.7954 45.1092 30.618 45.59C31.4409 46.0711 32.1034 46.2904 32.6666 46.2904C33.2298 46.2904 33.8923 46.0708 34.7152 45.59C35.5378 45.1092 36.3913 44.4474 37.3481 43.6931C37.8772 43.2759 38.4157 42.8607 38.9574 42.443C41.2389 40.6844 43.5777 38.8811 45.51 36.7053C47.8545 34.0653 49.4899 30.9848 49.4899 26.9884C49.4899 23.0764 47.2795 19.796 44.262 18.4167C41.3307 17.0768 37.392 17.4319 33.6494 21.3205C33.3921 21.5879 33.0373 21.7389 32.6666 21.7389C32.2959 21.7389 31.9409 21.5879 31.6838 21.3205C27.9409 17.4319 24.0025 17.0771 21.071 18.4167Z" fill="#03A1DB" stroke="#D7E1F4" stroke-width="1.39937" stroke-miterlimit="22.9256" stroke-linecap="round" stroke-linejoin="round"/>
</svg>
