<svg width="114" height="26" viewBox="0 0 114 26" fill="none" xmlns="http://www.w3.org/2000/svg">
<path d="M27.507 6.10029V8.31886C26.7217 6.69543 24.8823 5.72114 22.7987 5.72114C19.1457 5.72114 16.467 8.72501 16.467 13.0002C16.467 17.2483 19.1457 20.2522 22.7987 20.2522C24.8823 20.2522 26.7217 19.3049 27.507 17.6815V19.873H30.7551V6.10029H27.507ZM27.588 13.0002C27.588 15.5169 26.0726 17.2483 23.719 17.2483C21.3643 17.2483 19.85 15.5169 19.85 13.0002C19.85 10.4294 21.3654 8.72384 23.719 8.72384C26.0738 8.72384 27.588 10.4283 27.588 13.0002ZM43.7695 6.10029V13.5143C43.7695 15.4899 42.4701 16.7342 40.4417 16.7342C38.6832 16.7342 37.8439 15.7869 37.8439 13.7033V6.09912H34.5431V14.5414C34.5431 17.8693 36.3555 19.7369 39.3054 19.7369C41.3349 19.7369 43.0124 18.8166 43.7965 17.3011V18.4926C43.7965 21.2253 42.3081 22.7138 39.7373 22.7138C38.2489 22.7138 36.7616 22.2266 35.5972 21.3333L34.1087 23.742C35.407 24.9593 37.5716 25.6636 39.9263 25.6636C44.4726 25.6636 47.0434 23.1199 47.0434 18.4926V6.09912H43.7695V6.10029ZM50.2914 13.0002C50.2914 17.2483 53.1873 20.2522 57.4624 20.2522C60.0872 20.2522 62.2517 19.1159 63.415 17.1403L60.9253 15.3819C60.14 16.5992 58.9497 17.2495 57.5434 17.2495C55.1887 17.2495 53.6744 15.5721 53.6744 13.0013C53.6744 10.4036 55.1899 8.75319 57.5434 8.75319C59.0319 8.75319 60.1412 9.37532 60.9253 10.5938L63.415 8.83535C62.2517 6.88677 60.0872 5.72348 57.4624 5.72348C53.1873 5.72348 50.2914 8.72736 50.2914 13.0025V13.0002ZM78.7842 13.9745C78.8382 13.5413 78.8652 13.1093 78.8652 12.7032C78.8652 8.50902 76.1325 5.72231 72.1543 5.72231C68.0142 5.72231 65.1735 8.78018 65.1735 13.0553C65.1735 17.3575 68.0952 20.2522 72.4795 20.2522C74.9962 20.2522 77.1068 19.3049 78.4051 17.6005L76.4295 15.6531C75.4282 16.8163 74.1569 17.3845 72.5875 17.3845C70.3149 17.3845 68.8805 16.1672 68.5283 13.9745H78.7842ZM68.5283 11.7289C68.8805 9.7533 70.1517 8.59002 72.1813 8.59002C74.1569 8.59002 75.4282 9.69931 75.5632 11.7289H68.5283ZM82.0581 19.8742H85.3589V0.0667114H82.0581V19.8742ZM102.19 13.9745C102.244 13.5413 102.271 13.1093 102.271 12.7032C102.271 8.50902 99.5379 5.72231 95.5597 5.72231C91.4195 5.72231 88.5788 8.78018 88.5788 13.0553C88.5788 17.3575 91.5005 20.2522 95.8848 20.2522C98.4016 20.2522 100.512 19.3049 101.81 17.6005L99.8348 15.6531C98.8335 16.8163 97.5623 17.3845 95.9928 17.3845C93.7203 17.3845 92.2858 16.1672 91.9337 13.9745H102.19ZM91.9337 11.7289C92.2858 9.7533 93.5571 8.59002 95.5867 8.59002C97.5623 8.59002 98.8335 9.69931 98.9685 11.7289H91.9337ZM113.96 6.04629C113.608 5.9113 113.203 5.8573 112.769 5.8573C110.902 5.8573 109.388 6.8046 108.71 8.40103V6.10146H105.463V19.8742H108.764V13.0823C108.764 10.2686 109.982 8.99617 112.444 8.99617C112.877 8.99617 113.392 9.05017 113.96 9.13116V6.04629Z" fill="#142140"/>
<path fill-rule="evenodd" clip-rule="evenodd" d="M0 0.927918H7.87417C12.6576 0.851618 14.6931 3.53503 14.6931 7.07066C14.6931 12.846 9.73942 13.2404 7.87417 13.2134H3.43703V19.8703H0V0.929091V0.927918ZM3.43703 6.0952V4.09379H7.65819C9.69481 4.09379 10.7137 4.70419 11.0048 6.0952H3.43703ZM3.43703 8.10013C3.74223 9.46884 4.75995 10.1015 6.77193 10.1015H10.9931V8.10013H3.43703Z" fill="#142140"/>
</svg>
