<svg width="65" height="64" viewBox="0 0 65 64" fill="none" xmlns="http://www.w3.org/2000/svg">
<path d="M32.8334 64C50.5065 64 64.8334 49.6731 64.8334 32C64.8334 14.3269 50.5065 0 32.8334 0C15.1603 0 0.833405 14.3269 0.833405 32C0.833405 49.6731 15.1603 64 32.8334 64Z" fill="#D7E1F4"/>
<path fill-rule="evenodd" clip-rule="evenodd" d="M64.6855 28.9257C64.7821 29.9376 64.8333 30.9628 64.8333 32C64.8333 46.0711 55.7509 58.0207 43.1289 62.3074L21.515 43.9601L43.9894 18.1338L64.6858 28.926L64.6855 28.9257Z" fill="#132144"/>
<path fill-rule="evenodd" clip-rule="evenodd" d="M24.8766 43.6451C26.117 42.314 28.0077 42.42 29.0968 43.8721L30.6245 45.9142C31.8496 47.5326 33.8313 47.5326 35.0564 45.9142L36.5841 43.8721C37.6732 42.42 39.5639 42.3143 40.8043 43.6451C43.4967 46.5189 45.6899 45.5662 45.6899 41.5426V24.4955C45.6899 18.3996 44.2681 16.8719 38.5505 16.8719H27.1153C21.3977 16.8719 19.976 18.3996 19.976 24.4955V41.5273C19.991 45.5662 22.1994 46.5039 24.8769 43.6451H24.8766Z" fill="#03A1DB" stroke="#D7E1F4" stroke-width="1.39937" stroke-miterlimit="22.9256" stroke-linecap="round" stroke-linejoin="round"/>
<path d="M28.6913 28.9728H37.0106" stroke="#D7E1F4" stroke-width="1.39937" stroke-miterlimit="22.9256" stroke-linecap="round" stroke-linejoin="round"/>
</svg>
